<svg width="707" height="707" viewBox="0 0 707 707" fill="none" xmlns="http://www.w3.org/2000/svg">
<rect width="707" height="707" rx="353.5" fill="#1B263B"/>
<rect x="100.5" y="228.096" width="506.396" height="312.404" stroke="white" stroke-width="15"/>
<mask id="path-3-inside-1_258_2802" fill="white">
<rect x="137.949" y="269.265" width="339.357" height="228.962" rx="5"/>
</mask>
<rect x="137.949" y="269.265" width="339.357" height="228.962" rx="5" stroke="white" stroke-width="30" mask="url(#path-3-inside-1_258_2802)"/>
<path d="M540.234 297.492C548.719 297.492 555.461 304.242 555.461 312.402C555.461 320.562 548.718 327.312 540.234 327.312C531.75 327.312 525.008 320.562 525.008 312.402C525.008 304.242 531.75 297.492 540.234 297.492Z" stroke="white" stroke-width="10"/>
<path d="M540.234 369.388C548.719 369.388 555.461 376.138 555.461 384.298C555.461 392.458 548.718 399.207 540.234 399.207C531.75 399.207 525.008 392.458 525.008 384.298C525.008 376.138 531.75 369.388 540.234 369.388Z" stroke="white" stroke-width="10"/>
<line y1="-7.5" x2="195.517" y2="-7.5" transform="matrix(0.712667 -0.701503 0.712667 0.701503 353.699 227.232)" stroke="white" stroke-width="15"/>
<line y1="-7.5" x2="140.781" y2="-7.5" transform="matrix(-0.79021 -0.612836 0.624894 -0.78071 353.699 220.596)" stroke="white" stroke-width="15"/>
<path d="M499.781 63C508.265 63 515.008 69.7499 515.008 77.9102C515.008 86.0702 508.265 92.8193 499.781 92.8193C491.297 92.8193 484.555 86.0702 484.555 77.9102C484.555 69.7499 491.297 63 499.781 63Z" stroke="white" stroke-width="10"/>
<path d="M230.09 111.669C238.574 111.669 245.316 118.419 245.316 126.579C245.316 134.739 238.574 141.488 230.09 141.488C221.606 141.488 214.864 134.739 214.863 126.579C214.863 118.419 221.606 111.669 230.09 111.669Z" stroke="white" stroke-width="10"/>
</svg>
