<svg width="522" height="490" viewBox="0 0 522 490" fill="none" xmlns="http://www.w3.org/2000/svg">
<rect x="7.5" y="170.096" width="506.396" height="312.404" stroke="white" stroke-width="15"/>
<mask id="path-2-inside-1_263_2803" fill="white">
<rect x="44.9492" y="211.265" width="339.357" height="228.962" rx="5"/>
</mask>
<rect x="44.9492" y="211.265" width="339.357" height="228.962" rx="5" stroke="white" stroke-width="30" mask="url(#path-2-inside-1_263_2803)"/>
<path d="M447.234 239.492C455.719 239.492 462.461 246.242 462.461 254.402C462.461 262.562 455.718 269.312 447.234 269.312C438.75 269.312 432.008 262.562 432.008 254.402C432.008 246.242 438.75 239.492 447.234 239.492Z" stroke="white" stroke-width="10"/>
<path d="M447.234 311.388C455.719 311.388 462.461 318.138 462.461 326.298C462.461 334.458 455.718 341.207 447.234 341.207C438.75 341.207 432.008 334.458 432.008 326.298C432.008 318.138 438.75 311.388 447.234 311.388Z" stroke="white" stroke-width="10"/>
<line y1="-7.5" x2="195.517" y2="-7.5" transform="matrix(0.712667 -0.701503 0.712667 0.701503 260.699 169.232)" stroke="white" stroke-width="15"/>
<line y1="-7.5" x2="140.781" y2="-7.5" transform="matrix(-0.79021 -0.612836 0.624894 -0.78071 260.699 162.596)" stroke="white" stroke-width="15"/>
<path d="M406.781 5C415.265 5 422.008 11.7499 422.008 19.9102C422.008 28.0702 415.265 34.8193 406.781 34.8193C398.297 34.8193 391.555 28.0702 391.555 19.9102C391.555 11.7499 398.297 5.00001 406.781 5Z" stroke="white" stroke-width="10"/>
<path d="M137.09 53.6689C145.574 53.6689 152.316 60.4188 152.316 68.5791C152.316 76.7392 145.574 83.4883 137.09 83.4883C128.606 83.4883 121.864 76.7392 121.863 68.5791C121.863 60.4188 128.606 53.669 137.09 53.6689Z" stroke="white" stroke-width="10"/>
</svg>
