<svg xmlns="http://www.w3.org/2000/svg" width="1280" height="720" viewBox="0 0 1280 720"><rect width="100%" height="100%" fill="#CCCCCC"/><path fill="#666666" d="M304.21 322.565h10.19v62.18h-5.93q-1.38 0-2.3-.45-.93-.45-1.79-1.53l-32.46-41.45q.26 2.84.26 5.25v38.18h-10.19v-62.18h6.06q.73 0 1.27.07.53.06.94.25.41.2.8.56.39.37.86.97l32.59 41.62q-.13-1.5-.21-2.96-.09-1.46-.09-2.71zm41.88 17.37q4.91 0 8.93 1.59 4.02 1.6 6.88 4.52t4.4 7.14q1.55 4.21 1.55 9.41 0 5.25-1.55 9.46-1.54 4.22-4.4 7.19-2.86 2.96-6.88 4.55-4.02 1.6-8.93 1.6-4.94 0-8.98-1.6-4.05-1.59-6.91-4.55-2.85-2.97-4.42-7.19-1.57-4.21-1.57-9.46 0-5.2 1.57-9.41 1.57-4.22 4.42-7.14 2.86-2.92 6.91-4.52 4.04-1.59 8.98-1.59m0 37.28q5.51 0 8.15-3.69 2.65-3.7 2.65-10.84t-2.65-10.88q-2.64-3.74-8.15-3.74-5.59 0-8.27 3.76-2.69 3.77-2.69 10.86 0 7.1 2.69 10.82 2.68 3.71 8.27 3.71m64.03-1.5h11.7q3.22 0 5.41-.77 2.2-.78 3.51-2.07t1.89-3.01.58-3.65q0-2.02-.64-3.64-.65-1.61-2.02-2.75-1.38-1.14-3.55-1.74t-5.23-.6h-11.65zm9.85-44.2h-9.85v17.97h9.2q5.94 0 8.97-2.15t3.03-6.84q0-4.86-2.75-6.92t-8.6-2.06m-21.42-8.95h21.42q6.1 0 10.45 1.16 4.34 1.16 7.11 3.31 2.78 2.15 4.07 5.21 1.29 3.05 1.29 6.88 0 2.19-.65 4.19-.64 2-2 3.74-1.35 1.74-3.44 3.16-2.08 1.42-4.96 2.41 12.81 2.88 12.81 13.84 0 3.96-1.51 7.31-1.5 3.36-4.38 5.79t-7.1 3.8q-4.21 1.38-9.63 1.38h-23.48zm78.26 50.78v-7.43q-4.6.21-7.74.79t-5.03 1.49q-1.89.9-2.71 2.1-.81 1.21-.81 2.62 0 2.8 1.65 4 1.66 1.21 4.32 1.21 3.27 0 5.66-1.18 2.38-1.19 4.66-3.6m-22.44-23.17-1.89-3.4q7.61-6.97 18.31-6.97 3.87 0 6.93 1.27 3.05 1.27 5.16 3.53 2.1 2.26 3.2 5.4 1.1 3.13 1.1 6.88v27.86h-4.82q-1.5 0-2.32-.45t-1.29-1.83l-.95-3.18q-1.67 1.5-3.27 2.64-1.59 1.14-3.31 1.92-1.72.77-3.67 1.18-1.96.41-4.32.41-2.8 0-5.16-.75-2.37-.76-4.09-2.26-1.72-1.51-2.67-3.74-.94-2.24-.94-5.21 0-1.67.56-3.33.56-1.65 1.82-3.16 1.27-1.5 3.29-2.84 2.03-1.33 4.97-2.32 2.95-.99 6.86-1.61 3.91-.63 8.94-.75v-2.58q0-4.43-1.89-6.56t-5.46-2.13q-2.58 0-4.28.6t-2.99 1.36q-1.29.75-2.34 1.35t-2.34.6q-1.12 0-1.9-.58-.77-.58-1.24-1.35m77.18-4.09-2.79 3.87q-.48.6-.93.95-.45.34-1.31.34-.82 0-1.59-.49-.77-.5-1.85-1.12-1.07-.62-2.56-1.12-1.48-.49-3.67-.49-2.8 0-4.91 1.01-2.1 1.01-3.5 2.9t-2.09 4.58q-.68 2.69-.68 6.08 0 3.53.75 6.28t2.17 4.63q1.42 1.87 3.44 2.83 2.02.97 4.56.97t4.1-.62q1.57-.63 2.65-1.38 1.07-.75 1.87-1.37.8-.63 1.78-.63 1.29 0 1.94.99l3.05 3.87q-1.76 2.06-3.82 3.46-2.07 1.4-4.28 2.24-2.22.84-4.56 1.18-2.34.35-4.67.35-4.08 0-7.69-1.53-3.62-1.53-6.32-4.45-2.71-2.93-4.28-7.16-1.57-4.24-1.57-9.66 0-4.85 1.39-9 1.4-4.15 4.11-7.18 2.71-3.04 6.71-4.76t9.2-1.72q4.95 0 8.67 1.59 3.72 1.6 6.68 4.56m7.05-25.24h10.63v36.59h1.97q1.08 0 1.7-.27.63-.28 1.27-1.14l10.97-13.55q.68-.9 1.52-1.38.84-.47 2.17-.47h9.72l-13.72 16.38q-1.46 1.94-3.18 2.97.91.65 1.61 1.51.71.86 1.36 1.85l14.71 21.41h-9.59q-1.25 0-2.15-.41-.91-.41-1.51-1.48l-11.26-16.73q-.61-.99-1.25-1.29-.65-.3-1.94-.3h-2.4v20.21H538.6zm73.66 50.83v-19.78q-1.8-2.2-3.93-3.1t-4.58-.9q-2.41 0-4.34.9-1.94.9-3.31 2.73-1.38 1.83-2.11 4.65-.73 2.81-.73 6.64 0 3.87.62 6.56.62 2.68 1.79 4.38 1.16 1.7 2.83 2.45 1.68.76 3.74.76 3.32 0 5.64-1.38t4.38-3.91m0-50.83h10.62v63.9h-6.49q-2.11 0-2.66-1.94l-.91-4.25q-2.66 3.05-6.13 4.94-3.46 1.9-8.06 1.9-3.61 0-6.62-1.51t-5.18-4.36q-2.17-2.86-3.36-7.08-1.18-4.21-1.18-9.63 0-4.9 1.34-9.12 1.33-4.21 3.82-7.31 2.5-3.09 5.98-4.83 3.48-1.75 7.83-1.75 3.69 0 6.32 1.17 2.62 1.16 4.68 3.13zm30.49 22.45.65 4.99q2.06-3.96 4.9-6.22t6.71-2.26q3.05 0 4.9 1.34l-.69 7.95q-.22.78-.62 1.1-.41.32-1.1.32-.65 0-1.91-.21-1.27-.22-2.48-.22-1.76 0-3.14.52-1.37.51-2.47 1.48-1.09.97-1.93 2.34-.84 1.38-1.57 3.14v27.18h-10.62v-44.12h6.23q1.64 0 2.28.58.65.58.86 2.09m42.23-3.36q4.9 0 8.92 1.59 4.02 1.6 6.88 4.52t4.41 7.14q1.54 4.21 1.54 9.41 0 5.25-1.54 9.46-1.55 4.22-4.41 7.19-2.86 2.96-6.88 4.55-4.02 1.6-8.92 1.6-4.95 0-8.99-1.6-4.04-1.59-6.9-4.55-2.86-2.97-4.43-7.19-1.57-4.21-1.57-9.46 0-5.2 1.57-9.41 1.57-4.22 4.43-7.14t6.9-4.52q4.04-1.59 8.99-1.59m0 37.28q5.5 0 8.14-3.69 2.65-3.7 2.65-10.84t-2.65-10.88q-2.64-3.74-8.14-3.74-5.59 0-8.28 3.76-2.69 3.77-2.69 10.86 0 7.1 2.69 10.82 2.69 3.71 8.28 3.71m40.5-23.69v19.78q1.81 2.19 3.94 3.1 2.13.9 4.62.9 2.41 0 4.34-.9 1.94-.91 3.29-2.75 1.36-1.85 2.09-4.67t.73-6.64q0-3.87-.63-6.56-.62-2.69-1.78-4.37-1.16-1.67-2.82-2.45-1.65-.77-3.76-.77-3.31 0-5.63 1.4-2.32 1.39-4.39 3.93m-1.42-10.96.86 4.08q2.71-3.05 6.15-4.94 3.44-1.9 8.09-1.9 3.61 0 6.6 1.51 2.99 1.5 5.16 4.36t3.35 7.06q1.18 4.19 1.18 9.61 0 4.94-1.33 9.16-1.33 4.21-3.81 7.31-2.47 3.09-5.97 4.83-3.51 1.75-7.85 1.75-3.7 0-6.32-1.14t-4.69-3.17v18.07h-10.62v-58.53h6.49q2.07 0 2.71 1.94m101.44-10.8h-27.61v18.41h23.31v9.24h-23.31v25.33h-11.61v-62.18h39.22zm27.31 8.17q4.9 0 8.92 1.59 4.02 1.6 6.88 4.52t4.41 7.14q1.54 4.21 1.54 9.41 0 5.25-1.54 9.46-1.55 4.22-4.41 7.19-2.86 2.96-6.88 4.55-4.02 1.6-8.92 1.6-4.95 0-8.99-1.6-4.04-1.59-6.9-4.55-2.86-2.97-4.43-7.19-1.57-4.21-1.57-9.46 0-5.2 1.57-9.41 1.57-4.22 4.43-7.14t6.9-4.52q4.04-1.59 8.99-1.59m0 37.28q5.5 0 8.14-3.69 2.65-3.7 2.65-10.84t-2.65-10.88q-2.64-3.74-8.14-3.74-5.59 0-8.28 3.76-2.69 3.77-2.69 10.86 0 7.1 2.69 10.82 2.69 3.71 8.28 3.71m57.27-36.59h10.62v44.12h-6.49q-2.11 0-2.67-1.94l-.73-3.52q-2.71 2.75-5.97 4.45-3.27 1.7-7.7 1.7-3.61 0-6.39-1.23-2.77-1.22-4.66-3.46t-2.86-5.31-.97-6.77v-28.04h10.62v28.04q0 4.04 1.87 6.25 1.87 2.22 5.61 2.22 2.76 0 5.16-1.23 2.41-1.22 4.56-3.37zm30.32 1.94.73 3.48q1.33-1.33 2.81-2.47 1.49-1.14 3.14-1.94 1.66-.79 3.55-1.24 1.89-.46 4.13-.46 3.61 0 6.41 1.23 2.79 1.22 4.66 3.44 1.87 2.21 2.84 5.29.97 3.07.97 6.77v28.08h-10.62v-28.08q0-4.04-1.85-6.26-1.85-2.21-5.64-2.21-2.75 0-5.16 1.25-2.4 1.24-4.55 3.39v31.91h-10.63v-44.12h6.5q2.06 0 2.71 1.94m66.99 29.11v-19.78q-1.81-2.2-3.93-3.1-2.13-.9-4.58-.9-2.41 0-4.35.9-1.93.9-3.31 2.73-1.37 1.83-2.1 4.65-.74 2.81-.74 6.64 0 3.87.63 6.56.62 2.68 1.78 4.38t2.84 2.45q1.68.76 3.74.76 3.31 0 5.63-1.38 2.33-1.38 4.39-3.91m0-50.83h10.62v63.9h-6.49q-2.11 0-2.67-1.94l-.9-4.25q-2.67 3.05-6.13 4.94-3.46 1.9-8.06 1.9-3.61 0-6.62-1.51t-5.18-4.36q-2.18-2.86-3.36-7.08-1.18-4.21-1.18-9.63 0-4.9 1.33-9.12 1.34-4.21 3.83-7.31 2.49-3.09 5.98-4.83 3.48-1.75 7.82-1.75 3.7 0 6.32 1.17 2.63 1.16 4.69 3.13z"/></svg>