<svg xmlns="http://www.w3.org/2000/svg" width="139" height="209" viewBox="0 0 139 209"><rect width="100%" height="100%" fill="#CCCCCC"/><path fill="#666666" d="M37.525 85.19h2.37v14.46h-1.38q-.32 0-.53-.1-.22-.11-.42-.36l-7.55-9.64q.06.66.06 1.22v8.88h-2.37V85.19h1.41q.17 0 .3.01.12.02.22.07.09.04.18.12.09.09.2.23l7.58 9.68q-.03-.35-.05-.69t-.02-.63zm9.74 4.04q1.14 0 2.08.37.93.37 1.6 1.05.66.68 1.02 1.66t.36 2.19q0 1.22-.36 2.2t-1.02 1.67q-.67.69-1.6 1.06-.94.37-2.08.37-1.15 0-2.09-.37t-1.6-1.06q-.67-.69-1.03-1.67-.37-.98-.37-2.2 0-1.21.37-2.19.36-.98 1.03-1.66.66-.68 1.6-1.05t2.09-.37m0 8.67q1.28 0 1.9-.86.61-.86.61-2.52t-.61-2.53q-.62-.87-1.9-.87-1.3 0-1.92.87-.63.88-.63 2.53t.63 2.51q.62.87 1.92.87m14.9-12.71v14.46h-2.7V85.19zm5.31 14.46h-2.47V89.39h1.51q.48 0 .63.45l.16.76q.27-.3.57-.55.29-.25.63-.43.33-.18.72-.28.38-.11.84-.11.97 0 1.6.53.62.52.93 1.39.24-.51.6-.88.36-.36.79-.59t.92-.34q.48-.11.97-.11.85 0 1.51.26t1.11.76.69 1.22q.23.72.23 1.65v6.53h-2.47v-6.53q0-.98-.43-1.48-.43-.49-1.26-.49-.38 0-.7.13-.33.13-.57.37-.25.25-.39.62t-.14.85v6.53h-2.48v-6.53q0-1.03-.41-1.5-.42-.47-1.22-.47-.54 0-1 .27-.47.26-.87.72zm19.7-2.65v-1.73q-1.07.05-1.8.18-.73.14-1.17.35t-.63.49-.19.61q0 .65.39.93.38.28 1 .28.76 0 1.32-.27.55-.28 1.08-.84m-5.22-5.39-.44-.79q1.77-1.62 4.26-1.62.9 0 1.61.3.71.29 1.2.81.49.53.75 1.26.25.73.25 1.6v6.48h-1.12q-.35 0-.54-.1-.19-.11-.3-.43l-.22-.74q-.39.35-.76.61-.37.27-.77.45t-.85.28q-.46.09-1.01.09-.65 0-1.2-.17-.55-.18-.95-.53t-.62-.87-.22-1.21q0-.39.13-.78.13-.38.43-.73.29-.35.76-.66t1.16-.54q.68-.23 1.59-.38.91-.14 2.08-.17v-.6q0-1.03-.44-1.53-.44-.49-1.27-.49-.6 0-.99.14-.4.14-.7.32-.3.17-.54.31-.25.14-.55.14-.26 0-.44-.14-.18-.13-.29-.31m13.7 2.66q.46 0 .8-.12.34-.13.57-.35.22-.22.34-.53.11-.31.11-.68 0-.76-.45-1.21-.46-.44-1.37-.44t-1.36.44q-.46.45-.46 1.21 0 .36.12.67.11.31.34.53.22.23.57.36.34.12.79.12m2.79 5.84q0-.3-.18-.49t-.49-.3q-.31-.1-.72-.15-.42-.05-.88-.08l-.96-.04q-.5-.02-.97-.08-.41.23-.66.54-.26.31-.26.72 0 .27.14.5.13.24.43.41.29.17.76.27.47.09 1.15.09.69 0 1.19-.1.5-.11.83-.29.32-.19.47-.44.15-.26.15-.56m-.49-10.37h2.95v.92q0 .44-.53.54l-.92.17q.21.53.21 1.16 0 .76-.3 1.37-.31.62-.85 1.05t-1.27.66q-.74.24-1.59.24-.3 0-.58-.03t-.55-.08q-.48.29-.48.65 0 .31.29.45.28.15.75.21t1.07.08q.6.01 1.23.06t1.23.17q.6.13 1.07.4t.76.73q.28.47.28 1.2 0 .68-.33 1.32-.34.64-.97 1.14-.64.5-1.56.81-.93.3-2.11.3-1.16 0-2.02-.22-.86-.23-1.43-.6-.57-.38-.85-.87t-.28-1.02q0-.72.44-1.2.43-.49 1.19-.78-.41-.21-.65-.56t-.24-.92q0-.23.09-.48.08-.24.25-.48.16-.24.41-.46.25-.21.59-.38-.78-.42-1.22-1.12-.45-.7-.45-1.64 0-.76.31-1.38.3-.61.85-1.04.54-.44 1.29-.67.74-.23 1.62-.23.66 0 1.24.14.58.13 1.06.39m6.46 3.6h4.66q0-.48-.13-.9-.14-.43-.41-.75t-.68-.5q-.42-.19-.97-.19-1.07 0-1.68.61-.62.61-.79 1.73m6.3 1.49h-6.35q.06.79.28 1.36.22.58.58.96.36.37.86.55.49.19 1.09.19t1.04-.14q.43-.14.76-.31.32-.17.57-.31.24-.14.47-.14.31 0 .46.23l.71.9q-.41.48-.92.81-.51.32-1.06.51-.56.2-1.13.28-.58.08-1.12.08-1.07 0-1.99-.36-.92-.35-1.6-1.05-.68-.69-1.07-1.72-.39-1.02-.39-2.37 0-1.05.34-1.98.34-.92.98-1.61.63-.68 1.55-1.08.91-.4 2.06-.4.97 0 1.79.31t1.41.9q.59.6.93 1.46.33.87.33 1.98 0 .56-.12.76-.12.19-.46.19m-56.9 16.5h-6.42v4.28h5.42v2.15h-5.42v5.89h-2.7v-14.46h9.12zm6.35 1.9q1.14 0 2.07.37.94.37 1.6 1.05.67.68 1.03 1.66t.36 2.19q0 1.22-.36 2.2t-1.03 1.67q-.66.69-1.6 1.06-.93.37-2.07.37-1.15 0-2.09-.37t-1.61-1.06q-.66-.69-1.03-1.67-.36-.98-.36-2.2 0-1.21.36-2.19.37-.98 1.03-1.66.67-.68 1.61-1.05t2.09-.37m0 8.67q1.28 0 1.89-.86.62-.86.62-2.52t-.62-2.53q-.61-.87-1.89-.87-1.3 0-1.93.87-.62.88-.62 2.53t.62 2.51q.63.87 1.93.87m13.32-8.51h2.47v10.26h-1.51q-.49 0-.62-.45l-.17-.82q-.63.64-1.39 1.04-.76.39-1.79.39-.84 0-1.49-.28-.64-.29-1.08-.81t-.67-1.23q-.22-.72-.22-1.58v-6.52h2.47v6.52q0 .94.43 1.45.44.52 1.31.52.64 0 1.2-.28.56-.29 1.06-.79zm7.05.45.17.81q.31-.31.65-.58.35-.26.73-.45.39-.18.83-.28.44-.11.96-.11.84 0 1.49.29.65.28 1.08.79.44.52.66 1.23.23.72.23 1.58v6.53h-2.47v-6.53q0-.94-.43-1.45-.43-.52-1.31-.52-.64 0-1.2.29t-1.06.79v7.42h-2.47v-10.26h1.51q.48 0 .63.45m15.58 6.77v-4.6q-.42-.51-.92-.72-.49-.21-1.06-.21-.56 0-1.01.21t-.77.63q-.32.43-.49 1.09-.17.65-.17 1.54 0 .9.14 1.53.15.62.42 1.02.27.39.66.57.39.17.87.17.77 0 1.31-.32t1.02-.91m0-11.82h2.47v14.86h-1.51q-.49 0-.62-.45l-.21-.99q-.62.71-1.43 1.15-.8.44-1.87.44-.84 0-1.54-.35t-1.21-1.01q-.5-.67-.78-1.65-.27-.98-.27-2.24 0-1.14.31-2.12t.89-1.7 1.39-1.12q.81-.41 1.82-.41.86 0 1.47.27t1.09.73z"/></svg>