<svg xmlns="http://www.w3.org/2000/svg" width="185" height="278" viewBox="0 0 185 278"><rect width="100%" height="100%" fill="#CCCCCC"/><path fill="#666666" d="M49.58 114.865h2.96v18.07h-1.73q-.4 0-.66-.13-.27-.13-.52-.45l-9.44-12.05q.07.83.07 1.53v11.1H37.3v-18.07h1.76q.22 0 .37.01.16.02.28.08.12.05.23.16t.25.28l9.47 12.1-.06-.86q-.02-.43-.02-.79zm12.17 5.04q1.43 0 2.6.47 1.16.46 2 1.31.83.85 1.28 2.07.45 1.23.45 2.74 0 1.53-.45 2.75-.45 1.23-1.28 2.09-.84.86-2 1.32-1.17.47-2.6.47-1.44 0-2.61-.47-1.18-.46-2.01-1.32t-1.28-2.09q-.46-1.22-.46-2.75 0-1.51.46-2.74.45-1.22 1.28-2.07t2.01-1.31q1.17-.47 2.61-.47m0 10.84q1.6 0 2.37-1.07.77-1.08.77-3.15 0-2.08-.77-3.17-.77-1.08-2.37-1.08-1.62 0-2.4 1.09-.79 1.1-.79 3.16t.79 3.14q.78 1.08 2.4 1.08m18.61-6.8h2.52q.92 0 1.61-.23t1.14-.66q.46-.43.68-1.05.23-.62.23-1.38 0-.73-.23-1.32-.22-.58-.67-1-.45-.41-1.14-.63t-1.62-.22h-2.52zm-3.36-9.08h5.88q1.81 0 3.13.42 1.33.42 2.19 1.19.86.76 1.28 1.82t.42 2.33q0 1.31-.44 2.4-.43 1.1-1.31 1.88-.87.79-2.19 1.23t-3.08.44h-2.52v6.36H77zm20.66 5.04q1.43 0 2.6.47 1.17.46 2 1.31t1.28 2.07q.45 1.23.45 2.74 0 1.53-.45 2.75-.45 1.23-1.28 2.09t-2 1.32q-1.17.47-2.6.47t-2.61-.47q-1.17-.46-2-1.32-.84-.86-1.29-2.09-.46-1.22-.46-2.75 0-1.51.46-2.74.45-1.22 1.29-2.07.83-.85 2-1.31 1.18-.47 2.61-.47m0 10.84q1.6 0 2.37-1.07.77-1.08.77-3.15 0-2.08-.77-3.17-.77-1.08-2.37-1.08-1.62 0-2.4 1.09-.78 1.1-.78 3.16t.78 3.14 2.4 1.08m17.22-9.25-.7 1.11q-.13.2-.26.29-.14.08-.36.08t-.48-.13q-.25-.12-.59-.28t-.77-.28q-.43-.13-1.02-.13-.91 0-1.43.39t-.52 1.01q0 .42.27.7t.71.49q.45.21 1.01.38t1.14.37 1.15.46q.56.25 1 .65.45.39.72.94.26.55.26 1.33 0 .92-.33 1.7t-.98 1.35-1.6.89q-.96.32-2.21.32-.66 0-1.29-.12-.64-.12-1.22-.33t-1.07-.5q-.5-.29-.87-.63l.71-1.17q.14-.21.33-.33.18-.11.47-.11t.55.16q.25.17.59.35.34.19.79.35.46.17 1.16.17.55 0 .94-.13.4-.14.65-.35.26-.21.38-.49t.12-.58q0-.45-.27-.74t-.71-.5q-.45-.21-1.02-.38t-1.16-.37-1.16-.47-1.01-.68q-.45-.41-.72-1.01t-.27-1.45q0-.79.32-1.5.31-.72.92-1.25.6-.53 1.51-.85.9-.32 2.09-.32 1.33 0 2.41.44 1.09.44 1.82 1.15m6.73 11.64q-1.67 0-2.56-.94-.9-.95-.9-2.61v-7.16h-1.31q-.25 0-.42-.17-.18-.16-.18-.48v-1.23l2.06-.34.65-3.5q.06-.25.24-.38.17-.14.45-.14h1.6v4.04h3.43v2.2h-3.43v6.95q0 .6.29.93.3.34.81.34.29 0 .48-.07t.34-.14q.14-.08.26-.14.11-.07.22-.07.14 0 .23.07.08.06.18.2l.93 1.5q-.68.56-1.55.85-.88.29-1.82.29m7.47-8.09h5.82q0-.6-.17-1.13-.16-.53-.5-.93t-.86-.63-1.2-.23q-1.34 0-2.11.76t-.98 2.16m7.87 1.86h-7.93q.07.99.35 1.71.27.72.72 1.19t1.07.7 1.37.23 1.29-.18q.55-.17.95-.38.41-.22.71-.39.31-.18.6-.18.39 0 .57.29l.89 1.13q-.51.6-1.15 1-.64.41-1.33.65-.69.25-1.41.35t-1.4.1q-1.33 0-2.48-.45-1.15-.44-2-1.31t-1.34-2.15-.49-2.97q0-1.31.43-2.47.42-1.15 1.21-2.01.8-.86 1.94-1.36 1.15-.5 2.58-.5 1.22 0 2.24.39 1.03.39 1.76 1.13.74.75 1.16 1.83t.42 2.47q0 .7-.15.94t-.58.24m5.77-6.02.18 1.45q.6-1.15 1.43-1.81.82-.65 1.95-.65.89 0 1.42.38l-.2 2.32q-.06.22-.18.32-.12.09-.32.09-.18 0-.55-.06-.37-.07-.72-.07-.51 0-.91.15t-.72.44q-.32.28-.57.68-.24.4-.45.91v7.9h-3.09v-12.83h1.81q.48 0 .67.17.18.17.25.61m-73.22 26.65h-8.02v5.35h6.77v2.69h-6.77v7.36H58.1v-18.07h11.4zm7.94 2.38q1.42 0 2.59.46t2 1.31 1.28 2.07q.45 1.23.45 2.74 0 1.53-.45 2.75-.45 1.23-1.28 2.09t-2 1.33q-1.17.46-2.59.46-1.44 0-2.61-.46-1.18-.47-2.01-1.33t-1.29-2.09q-.45-1.22-.45-2.75 0-1.51.45-2.74.46-1.22 1.29-2.07t2.01-1.31q1.17-.46 2.61-.46m0 10.83q1.6 0 2.37-1.07.77-1.08.77-3.15 0-2.08-.77-3.17-.77-1.08-2.37-1.08-1.63 0-2.41 1.09t-.78 3.16q0 2.06.78 3.14t2.41 1.08m16.65-10.64h3.09v12.83h-1.89q-.61 0-.78-.56l-.21-1.03q-.79.8-1.74 1.3-.95.49-2.23.49-1.05 0-1.86-.36-.81-.35-1.36-1t-.83-1.55q-.28-.89-.28-1.97v-8.15h3.09v8.15q0 1.18.54 1.82.55.65 1.63.65.8 0 1.5-.36t1.33-.98zm8.81.57.21 1.01q.39-.39.82-.72t.92-.56q.48-.23 1.03-.36t1.2-.13q1.05 0 1.86.35.81.36 1.36 1 .54.65.82 1.54t.28 1.97v8.16h-3.09v-8.16q0-1.18-.53-1.82-.54-.64-1.64-.64-.8 0-1.5.36t-1.33.99v9.27h-3.08v-12.83h1.88q.6 0 .79.57m19.48 8.46v-5.75q-.53-.64-1.15-.9t-1.33-.26q-.7 0-1.26.26t-.96.79q-.4.54-.62 1.35-.21.82-.21 1.94t.18 1.9q.19.78.52 1.28.34.49.83.71.48.22 1.09.22.96 0 1.63-.4.68-.4 1.28-1.14m0-14.77h3.08v18.57h-1.88q-.61 0-.78-.56l-.26-1.24q-.77.89-1.78 1.44t-2.34.55q-1.06 0-1.93-.44-.88-.44-1.51-1.27t-.97-2.05q-.34-1.23-.34-2.8 0-1.43.38-2.65.39-1.23 1.12-2.13.72-.9 1.73-1.41 1.02-.5 2.28-.5 1.07 0 1.84.33.76.34 1.36.92z"/></svg>