<svg xmlns="http://www.w3.org/2000/svg" width="278" height="156" viewBox="0 0 278 156"><rect width="100%" height="100%" fill="#CCCCCC"/><path fill="#666666" d="M68.6 68.4h3.2v19.52h-1.86q-.43 0-.73-.14-.29-.14-.56-.48L58.46 74.29q.08.89.08 1.64v11.99h-3.2V68.4h1.91q.23 0 .4.02.16.02.29.08t.25.18q.12.11.27.3L68.7 82.05q-.05-.47-.07-.93-.03-.46-.03-.85zm13.15 5.45q1.54 0 2.8.5t2.16 1.42 1.38 2.24q.49 1.32.49 2.96t-.49 2.97q-.48 1.32-1.38 2.25t-2.16 1.43-2.8.5q-1.55 0-2.82-.5t-2.17-1.43-1.39-2.25q-.49-1.33-.49-2.97t.49-2.96 1.39-2.24 2.17-1.42 2.82-.5m0 11.71q1.73 0 2.56-1.16t.83-3.41q0-2.24-.83-3.41-.83-1.18-2.56-1.18-1.76 0-2.6 1.19-.84 1.18-.84 3.4 0 2.23.84 3.4t2.6 1.17m27.77-15.32-.91 1.71q-.16.28-.34.41t-.45.13q-.29 0-.62-.21t-.79-.47q-.45-.25-1.07-.46-.61-.21-1.45-.21-.76 0-1.32.18-.57.18-.96.51-.38.32-.57.77-.19.46-.19 1 0 .69.39 1.14.38.46 1.02.79.63.32 1.44.58.81.25 1.66.54t1.66.68q.81.38 1.45.97.63.59 1.02 1.44.38.85.38 2.06 0 1.33-.45 2.48-.45 1.16-1.33 2.01-.87.86-2.12 1.35-1.26.5-2.88.5-.93 0-1.83-.19-.91-.18-1.74-.52-.83-.33-1.56-.81-.73-.47-1.29-1.05l1.06-1.74q.14-.19.35-.32.22-.13.46-.13.34 0 .73.28t.93.61q.54.34 1.27.62.72.28 1.73.28 1.55 0 2.4-.74t.85-2.11q0-.77-.38-1.26-.38-.48-1.02-.81-.63-.34-1.44-.56-.81-.23-1.65-.5t-1.65-.65-1.44-.99q-.64-.61-1.02-1.52-.39-.91-.39-2.24 0-1.07.43-2.08.42-1.02 1.23-1.8t2-1.25q1.19-.48 2.73-.48 1.73 0 3.19.54 1.45.54 2.48 1.52m7.6 17.9q-1.81 0-2.77-1.02-.97-1.02-.97-2.82v-7.73h-1.42q-.27 0-.46-.18-.19-.17-.19-.53v-1.32l2.23-.36.7-3.78q.07-.27.26-.42t.49-.15h1.72v4.36h3.7v2.38h-3.7v7.5q0 .65.32 1.02.32.36.87.36.31 0 .52-.07.21-.08.37-.16.15-.08.27-.16.13-.07.25-.07.15 0 .24.07.09.08.2.23l1 1.62q-.73.61-1.67.92-.95.31-1.96.31m5.53-14.07H126v13.85h-3.35zm3.81-4.04q0 .43-.17.81-.18.38-.47.66-.29.29-.68.46t-.84.17q-.43 0-.82-.17-.38-.17-.66-.46-.29-.28-.46-.66-.16-.38-.16-.81 0-.44.16-.83.17-.4.46-.68.28-.28.66-.45.39-.17.82-.17.45 0 .84.17t.68.45.47.68q.17.39.17.83m2.99-2.17h3.33v20.06h-3.33zm6.7 0h3.34v20.06h-3.34zm26.07 3.43h-8.66v5.78h7.31v2.9h-7.31v7.95h-3.65V68.4h12.31zm8.58 2.56q1.53 0 2.8.5 1.26.5 2.16 1.42.89.92 1.38 2.24t.49 2.96-.49 2.97q-.49 1.32-1.38 2.25-.9.93-2.16 1.43-1.27.5-2.8.5-1.56 0-2.83-.5-1.26-.5-2.16-1.43t-1.39-2.25q-.5-1.33-.5-2.97t.5-2.96q.49-1.32 1.39-2.24t2.16-1.42q1.27-.5 2.83-.5m0 11.71q1.72 0 2.55-1.16t.83-3.41q0-2.24-.83-3.41-.83-1.18-2.55-1.18-1.76 0-2.6 1.19-.85 1.18-.85 3.4 0 2.23.85 3.4.84 1.17 2.6 1.17m17.98-11.49h3.33v13.85h-2.04q-.66 0-.83-.61l-.23-1.1q-.85.86-1.88 1.39-1.03.54-2.42.54-1.13 0-2-.39-.87-.38-1.47-1.09-.59-.7-.89-1.66-.31-.97-.31-2.13v-8.8h3.34v8.8q0 1.27.58 1.97.59.69 1.77.69.86 0 1.62-.38.75-.39 1.43-1.06zm9.52.61.22 1.09q.42-.42.89-.78.46-.35.98-.6t1.12-.4q.59-.14 1.29-.14 1.14 0 2.02.39.87.38 1.46 1.08.59.69.89 1.66.31.96.31 2.12v8.82h-3.34V79.1q0-1.26-.58-1.96-.58-.69-1.77-.69-.86 0-1.62.39-.75.39-1.43 1.06v10.02h-3.33V74.07h2.03q.65 0 .86.61m21.03 9.14v-6.21q-.57-.69-1.24-.98-.67-.28-1.43-.28t-1.37.28q-.61.29-1.04.86t-.66 1.46q-.23.88-.23 2.09t.2 2.05q.19.85.56 1.38.36.53.89.77.52.24 1.17.24 1.04 0 1.77-.44.73-.43 1.38-1.22m0-15.96h3.33v20.06h-2.04q-.66 0-.83-.61l-.29-1.33q-.83.95-1.92 1.55-1.09.59-2.53.59-1.14 0-2.08-.47-.95-.47-1.63-1.37t-1.05-2.22-.37-3.02q0-1.54.42-2.87.42-1.32 1.2-2.29t1.88-1.52q1.09-.55 2.45-.55 1.16 0 1.99.37.82.36 1.47.98z"/></svg>